<?xml version="1.0" encoding="UTF-8" standalone="no"?>
<svg width="212px" height="148px" viewBox="0 0 212 148" version="1.1" xmlns="http://www.w3.org/2000/svg" xmlns:xlink="http://www.w3.org/1999/xlink">
    <!-- Generator: Sketch 3.8.3 (29802) - http://www.bohemiancoding.com/sketch -->
    <title>Rectangle 2</title>
    <desc>Created with Sketch.</desc>
    <defs></defs>
    <g id="Page-1" stroke="none" stroke-width="1" fill="none" fill-rule="evenodd">
        <rect id="Rectangle-2" fill="#FFFFFF" x="0" y="-3" width="212" height="148"></rect>
        <path d="M42.8323517,29 L42.8323517,106.636719 L87.4497375,106.636719 L80.0548401,119.46875 L27.8184361,119.46875 L27.8184361,29 L42.8323517,29 Z M113.349686,80.3867188 L83.8184361,29 L99.5215611,29 L120.205155,65.1523438 L140.947342,29 L156.650467,29 L127.00203,80.3867188 L127.00203,119.46875 L113.349686,119.46875 L113.349686,80.3867188 Z" id="LY" stroke="#000000" stroke-width="6" fill="#000000"></path>
        <path d="M148.456958,103 L148.456958,122.693318 L145.485104,122.693318 L145.485104,103 L148.456958,103 Z M156.492444,115.97157 L152.028285,110.270202 L155.446555,110.270202 L158.214334,113.892548 L161.033131,110.270202 L164.55344,110.270202 L159.961733,115.97157 L165.28046,122.693318 L161.862189,122.693318 L158.214334,118.050593 L154.477195,122.693318 L150.969642,122.693318 L156.492444,115.97157 Z M167.767634,122.693318 L167.767634,103 L171.90017,103 C173.881416,103 175.445982,103.195571 176.593914,103.586718 C177.826878,103.969362 178.945033,104.619847 179.94841,105.538193 C181.980676,107.391891 182.996793,109.828022 182.996793,112.846659 C182.996793,115.873799 181.93816,118.322685 179.820863,120.193389 C178.757963,121.128741 177.64406,121.779227 176.479121,122.144864 C175.390711,122.510502 173.847403,122.693318 171.849151,122.693318 L167.767634,122.693318 Z M170.739488,119.90003 L172.078736,119.90003 C173.413739,119.90003 174.52339,119.759729 175.407723,119.479124 C176.292056,119.181512 177.091345,118.709591 177.805614,118.063348 C179.268165,116.728345 179.999429,114.989466 179.999429,112.846659 C179.999429,110.686846 179.276668,108.935212 177.831124,107.591706 C176.530134,106.392755 174.61269,105.793288 172.078736,105.793288 L170.739488,105.793288 L170.739488,119.90003 Z M191.453186,105.780533 L188.04767,105.780533 L189.680277,103 L194.42504,103 L194.42504,122.693318 L191.453186,122.693318 L191.453186,105.780533 Z" id="IxD1" fill="#000000"></path>
    </g>
</svg>